<svg width="48" height="70" viewBox="0 0 48 70" fill="none" xmlns="http://www.w3.org/2000/svg">
<path d="M20.3985 0.867935C15.2584 1.76953 11.4105 3.76873 7.7586 7.40593C3.6552 11.524 1.4915 16.1832 1.0099 21.9099C0.5136 28.0867 2.573 34.2194 6.766 38.9836C7.382 39.6899 8.2241 40.5467 8.6595 40.9072L9.426 41.5533V55.4714C9.426 66.5335 9.4708 69.3587 9.6213 69.2992C9.7116 69.2544 12.9729 67.3602 16.8509 65.0754C20.7289 62.7913 23.9454 60.9272 24.0049 60.9272C24.0644 60.9272 27.2816 62.7913 31.1589 65.0754C35.0369 67.3602 38.2982 69.2537 38.4032 69.2992C38.5383 69.3594 38.5831 66.5335 38.5831 55.4714V41.5687L39.4399 40.8323C40.5522 39.8852 42.1755 38.0064 43.1821 36.4734C47.1504 30.522 48.1423 23.0516 45.8428 16.2882C44.6703 12.8162 42.9875 10.1562 40.2519 7.40523C36.9157 4.08372 33.338 2.11463 28.7691 1.09263C26.9967 0.687332 22.1268 0.566933 20.3985 0.867935ZM28.0334 4.09913C32.001 4.92583 35.4282 6.81933 38.329 9.81043C41.3047 12.8764 43.1387 16.5591 43.7694 20.7976C45.1071 29.5903 40.2225 38.3977 32.0164 41.9894C29.6714 43.0261 27.4923 43.5077 24.742 43.5973C21.9917 43.7023 20.1577 43.4468 17.7532 42.6656C10.4788 40.2758 5.1581 33.8134 4.1508 26.133C3.9254 24.3746 4.0605 21.1126 4.4511 19.4445C5.338 15.5665 7.0663 12.4557 9.937 9.58503C13.304 6.20333 17.0763 4.38474 22.0512 3.75333C23.2391 3.60284 26.5305 3.79883 28.0334 4.09913ZM15.3634 45.0855C21.3155 47.5201 28.2287 47.28 34.1206 44.4093L35.5787 43.6876V53.8929V64.1129L35.0978 63.8126C34.8269 63.6474 32.2117 62.1144 29.3116 60.4008L24.0063 57.2893L18.715 60.4008C15.7995 62.1144 13.1843 63.6474 12.9288 63.8126L12.4332 64.1129V53.8775V43.6421L13.2298 44.0782C13.6498 44.319 14.627 44.7698 15.3634 45.0855Z" fill="#EA8833"/>
<path d="M21.7509 13.463C20.5637 15.8829 19.5718 17.8968 19.5417 17.9269C19.5116 17.957 17.287 18.3175 14.5969 18.7088C11.9068 19.0994 9.66679 19.4606 9.63739 19.4907C9.60729 19.5208 11.1858 21.114 13.1696 23.0229L16.7466 26.4949L15.95 31.1996C15.4992 33.7847 15.1534 36.024 15.1688 36.1591C15.1989 36.3691 16.0858 35.9638 19.6173 34.0997L24.0063 31.7848L28.41 34.0997C31.9268 35.9624 32.813 36.3684 32.8431 36.1577C32.8578 36.0226 32.512 33.798 32.0612 31.243L31.2345 26.5838L34.8717 23.0215C36.8702 21.0524 38.4788 19.4445 38.4333 19.4445C37.8474 19.3997 28.4989 17.9717 28.4534 17.9262C28.4233 17.8961 27.4314 15.8822 26.2589 13.4623C25.0717 11.0578 24.0644 9.07333 24.0042 9.07333C23.944 9.07333 22.9388 11.0578 21.7509 13.463ZM25.253 18.3777C26.275 20.4973 26.4402 20.7822 26.8161 20.8578C27.0415 20.9033 28.2588 21.0832 29.4915 21.2638C30.7389 21.429 31.7609 21.5942 31.7763 21.6096C31.791 21.625 30.9496 22.4965 29.8828 23.5633L27.9592 25.4722L28.3953 27.9824C28.6207 29.3649 28.816 30.5675 28.816 30.6578C28.816 30.7628 27.7338 30.2672 26.4115 29.5609L24.007 28.2981L21.6025 29.5609C20.2802 30.2672 19.198 30.7635 19.198 30.6578C19.198 30.5675 19.3933 29.3656 19.6187 27.9824L20.0548 25.4722L18.1312 23.5633C17.0644 22.4965 16.2223 21.6243 16.2377 21.6096C16.2524 21.5949 17.2898 21.4297 18.5225 21.2638C19.7699 21.0832 20.9571 20.9033 21.1825 20.8578C21.543 20.7829 21.7383 20.4819 22.7456 18.3777C23.3917 17.0701 23.9482 15.9879 24.0084 15.9879C24.0686 15.9879 24.6216 17.0701 25.253 18.3777Z" fill="#EA8833"/>
</svg>
