<svg width="652" height="704" viewBox="0 0 652 704" fill="none" xmlns="http://www.w3.org/2000/svg">
<path d="M641.337 492.78L626.44 449.091L601.585 457.554L550.806 308.688L494.133 327.975L494.295 328.477L476.046 407.247L450.058 519.301L465.359 552.731L518.794 534.528L538.224 527.893L559.89 520.515L577.572 572.392L634.245 553.12L616.546 501.243L641.337 492.78ZM538.403 479.123L525.562 483.492L500.982 491.907L517.757 408.606L519.377 401.697L545.025 476.907L538.403 479.123Z" fill="#98C4F9"/>
<g style="mix-blend-mode:overlay" opacity="0.25">
<path d="M616.464 501.243L634.163 553.12L598.102 537.699L540.458 330.192L519.327 401.664L509.531 442.15L476.094 407.247L494.359 328.477L494.197 327.975L550.805 308.688L601.584 457.603L626.439 449.124L641.336 492.78L616.464 501.243Z" fill="black"/>
</g>
<g style="mix-blend-mode:overlay" opacity="0.25">
<path d="M538.224 527.893L518.793 534.527L521.659 494.463V487.149L525.626 483.492L528.168 481.146L538.467 479.123C538.467 479.123 537.754 508.557 538.224 527.893Z" fill="black"/>
</g>
<path d="M538.402 479.107C536.743 477.239 534.673 475.781 532.356 474.846C530.038 473.911 527.535 473.525 525.044 473.718C516.559 474.43 511.815 477.602 511.523 486.437C511.232 495.272 513.353 539.834 511.41 557.504C509.467 575.174 521.53 576.922 522.226 563.863C522.922 550.805 517.79 509.77 521.595 503.055C525.4 496.34 523.084 510.482 527.068 515.077C531.051 519.673 535.31 511.55 531.051 500.514C526.792 489.479 538.402 479.107 538.402 479.107Z" fill="url(#paint0_linear_165_2710)"/>
<path d="M19.9586 413.121C18.9519 413.18 17.9421 413.087 16.963 412.846C16.4287 412.62 14.7609 411.924 0.317383 386.163L2.92434 384.707C8.31636 394.319 16.4934 408.332 18.226 410.128C24.1796 410.094 30.1264 409.721 36.0375 409.011L36.3289 411.972C31.5684 412.458 24.1847 413.121 19.9586 413.121Z" fill="#FF6643"/>
<path d="M72.3247 425.563V426.421C72.3247 426.421 71.5475 442.78 59.2899 442.084H59.1928C51.6148 441.599 42.2395 438.071 35.9569 435.434C31.9898 433.816 29.2533 432.489 28.9457 432.537C28.1522 432.667 38.24 474.608 38.0943 476.955C38.0738 477.301 38.0084 477.644 37.9 477.974C37.1875 480.239 34.6615 482.958 33.188 483.184C33.0423 483.184 32.7185 482.909 32.2651 482.343C27.715 476.679 9.67689 443.799 9.17493 433.071C8.65678 421.275 14.6155 414.172 22.7117 412.812C28.6866 411.825 46.1418 414.22 54.8857 415.547L59.9862 416.356L72.3247 425.563Z" fill="#092533"/>
<g style="mix-blend-mode:overlay" opacity="0.25">
<path d="M38.0946 476.987C38.0741 477.334 38.0088 477.676 37.9003 478.006C37.1879 480.272 34.6619 482.99 33.1884 483.217C33.0427 483.217 32.7188 482.941 32.2654 482.375C38.7423 473.33 21.9024 429.252 25.5618 429.123C27.3592 429.123 31.3425 432.117 35.9572 435.466C31.9901 433.848 29.2537 432.521 28.946 432.57C28.1688 432.699 38.2404 474.592 38.0946 476.987Z" fill="black"/>
</g>
<g style="mix-blend-mode:overlay" opacity="0.25">
<path d="M72.3248 425.564V426.421C72.3248 426.421 71.5476 442.78 59.29 442.085C61.7027 440.159 62.1399 436.761 61.9617 432.651C61.7512 427.894 57.3632 419.706 54.8857 415.531L59.9863 416.34L72.3248 425.564Z" fill="black"/>
</g>
<path d="M46.2551 371.907C45.8912 372.378 45.6567 372.936 45.575 373.525C45.4293 373.266 44.9273 372.392 44.2634 371.357C43.1462 369.641 41.6079 367.489 40.6688 367.23C39.1791 366.826 35.1958 371.858 29.8037 372.247C29.4479 372.271 29.0909 372.271 28.7351 372.247C22.8087 371.972 16.5261 363.574 21.5781 353.687C22.0654 354.725 22.8199 355.615 23.7645 356.266C24.709 356.917 25.8097 357.306 26.9539 357.392C26.2561 357.203 25.6463 356.776 25.2296 356.185C24.8129 355.594 24.6153 354.877 24.6708 354.156C31.1477 355.305 34.4833 350.451 40.0534 352.214C45.6236 353.978 45.2674 357.344 45.2674 357.344C45.2674 357.344 49.5097 355.726 50.8375 360.968C51.8576 365.176 47.8905 369.366 46.2551 371.907Z" fill="#092533"/>
<path d="M45.5261 373.411C45.1115 374.865 44.4065 376.219 43.4535 377.392C42.9381 378.119 42.2631 378.719 41.48 379.145C40.697 379.571 39.8267 379.813 38.9359 379.851C35.1793 379.754 31.4227 374.706 29.7549 372.133C35.1469 371.745 39.1302 366.712 40.6199 367.117C41.559 367.376 43.0973 369.528 44.2146 371.243C44.8785 372.279 45.3804 373.152 45.5261 373.411Z" fill="url(#paint1_linear_165_2710)"/>
<path d="M50.9663 373.93C50.9663 373.93 48.1489 380.402 47.0802 378.979C46.053 378.1 44.7932 377.538 43.4531 377.36C44.4061 376.187 45.1111 374.833 45.5257 373.38C45.6075 372.79 45.8419 372.233 46.2058 371.762C47.626 372.805 49.2468 373.543 50.9663 373.93Z" fill="url(#paint2_linear_165_2710)"/>
<path d="M70.8675 428.462C66.3661 427.798 54.1571 414.546 54.1571 408.834C54.1481 407.939 54.0668 407.046 53.9142 406.164C52.9751 400.226 49.5423 391.601 48.1174 385.371C46.4982 378.219 48.846 375.549 48.846 375.549C54.4 366.002 66.9652 384.918 74.1383 400.08C76.273 404.146 77.676 408.555 78.2836 413.106C78.8179 423.947 75.3851 429.125 70.8675 428.462Z" fill="#4D5AFF"/>
<g style="mix-blend-mode:overlay" opacity="0.25">
<path d="M70.8674 428.46C66.3659 427.797 54.157 414.544 54.157 408.832C54.1479 407.937 54.0667 407.044 53.9141 406.162V403.622L58.3346 380.467C58.3346 380.467 64.439 387.732 65.4106 400.709C66.3821 413.687 80.6799 416.535 74.1706 400.095C76.3052 404.16 77.7083 408.569 78.3158 413.12C78.8178 423.946 75.385 429.124 70.8674 428.46Z" fill="black"/>
</g>
<path d="M61.4108 399.835C61.2273 399.955 61.0247 400.042 60.8117 400.094C57.2538 400.636 53.6342 400.636 50.0762 400.094C49.777 400.044 49.4839 399.963 49.2019 399.851C47.5827 399.042 49.2019 397.1 48.6675 393.654C48.1332 390.207 46.8216 380.126 51.906 377.036C56.9903 373.945 61.1841 386.049 61.3623 392.149C61.5404 398.249 62.5605 398.848 61.4108 399.835Z" fill="#4D5AFF"/>
<path d="M60.8116 400.095C60.8116 400.095 60.5525 414.998 57.7189 422.02C56.8283 424.205 55.6948 425.629 54.2213 425.596C48.0521 425.467 34.1915 410.823 32.9285 410.273C31.6655 409.723 25.3667 410.677 25.561 409.755C25.7553 408.833 28.2166 406.761 30.8721 405.774C33.5276 404.787 33.0581 405.37 50.1085 413.202C49.8818 411.697 49.979 405.111 50.1085 401.519C50.1085 400.952 50.1085 400.467 50.1085 400.062C53.6542 400.612 57.2626 400.623 60.8116 400.095Z" fill="url(#paint3_linear_165_2710)"/>
<path d="M43.1785 487.052C43.6157 489.705 25.7718 507.861 26.6948 503.087C27.6177 498.314 33.1717 483.201 33.1717 483.201C34.6776 482.974 37.1712 480.256 37.8836 477.99C39.3571 480.579 42.8223 484.851 43.1785 487.052Z" fill="#4D5AFF"/>
<g style="mix-blend-mode:overlay" opacity="0.25">
<path d="M59.2896 431.293C59.2896 431.293 30.6293 425.921 24.962 428.51C19.2948 431.099 35.3251 476.374 35.3251 476.374" stroke="white" stroke-width="0.46" stroke-miterlimit="10"/>
</g>
<g style="mix-blend-mode:overlay" opacity="0.25">
<path d="M57.7191 422.02C58.2534 419.026 58.6744 410.337 57.1686 406.89C56.1484 404.576 52.3918 402.586 50.0439 401.534C50.0439 400.968 50.0439 400.483 50.0439 400.078C53.6019 400.62 57.2215 400.62 60.7794 400.078C60.7794 400.078 60.5527 414.997 57.7191 422.02Z" fill="black"/>
</g>
<path d="M520.833 321.244C519.983 324.282 518.961 327.27 517.773 330.193C515.636 335.71 512.397 343.218 507.62 353.688C507.507 359.011 505.807 392.943 505.337 400.758C505.337 401.697 505.24 402.263 505.24 402.377C504.525 403.089 503.6 403.554 502.601 403.703C501.338 404.043 499.978 404.076 499.362 403.299C498.164 401.681 490.068 369.626 489.647 362.069C489.226 354.513 488.854 356.244 498.132 326.147C495.881 327.199 481.259 326.811 481.259 326.811C481.259 326.811 483.931 363.671 483.947 363.93C483.96 364.016 483.96 364.103 483.947 364.189C483.656 364.992 483.216 365.733 482.652 366.374C482.393 366.632 482.118 366.794 481.875 366.713C481.507 366.476 481.179 366.181 480.903 365.84C475.016 359.097 470.075 351.585 466.217 343.51C461.359 332.506 460.112 324.82 464.76 317.134C469.407 309.448 492.934 308.85 492.934 308.85C494.424 309.27 497.792 309.675 501.241 310.468C502.228 310.694 503.232 310.969 504.171 311.277C509.321 312.992 519.133 315.16 521.254 313.947C521.818 316.369 521.672 318.903 520.833 321.244Z" fill="#6C5BE8"/>
<path d="M540.33 295.631C539.39 296.149 528.59 295.744 521.288 292.961C521.288 294.255 521.482 296.197 521.676 298.576C521.968 302.2 522.291 306.505 522.21 309.644C522.21 311.893 521.903 313.543 521.288 313.916C520.154 314.563 516.867 314.255 513.191 313.56C510.844 313.123 508.334 312.524 506.277 311.941C505.5 311.731 504.788 311.505 504.14 311.278C499.995 309.903 494.829 309.369 492.903 308.835C492.417 308.705 492.141 308.576 492.125 308.43C492.125 307.702 493.923 306.052 494.797 304.32C494.894 304.11 495.04 303.786 495.202 303.382C496.111 300.953 496.895 298.48 497.55 295.971C497.874 294.676 497.987 293.835 497.712 293.98C496.837 294.45 491.737 303.98 491.138 303.98C490.261 303.616 489.435 303.143 488.676 302.573C486.62 301.181 484.045 299.142 483.981 298.155C483.973 298.095 483.98 298.033 484.003 297.976C484.026 297.92 484.063 297.87 484.11 297.831C485.308 296.699 494.457 281.327 497.776 278.042C499.159 276.696 500.816 275.663 502.634 275.016C503.579 274.649 504.562 274.388 505.565 274.239C507.553 274.188 509.538 274.422 511.459 274.935C518.049 276.553 524.089 280.728 527.522 282.783C531.974 285.421 535.019 284.692 536.136 285.356C537.253 286.019 541.253 295.081 540.33 295.631Z" fill="#FF6643"/>
<path d="M522.211 309.642C516.09 309.642 502.489 309.173 495.234 303.364C496.144 300.936 496.927 298.462 497.582 295.953C497.582 295.953 511.945 300.306 521.676 298.574C522.033 302.199 522.292 306.503 522.211 309.642Z" fill="#FF9280"/>
<g style="mix-blend-mode:overlay" opacity="0.25">
<path d="M511.523 274.916C511.296 277.457 510.389 280.191 507.62 279.981C506.34 279.891 505.137 279.333 504.241 278.414C503.345 277.495 502.819 276.279 502.763 274.997C503.708 274.63 504.691 274.369 505.693 274.22C507.66 274.175 509.622 274.409 511.523 274.916Z" fill="black"/>
</g>
<path d="M509.872 269.368C509.506 267.873 508.827 266.472 507.88 265.258C506.811 267.005 502.65 267.912 499.428 268.138C498.268 268.268 497.096 268.236 495.946 268.041C495.467 266.613 495.322 265.094 495.524 263.601C495.725 262.108 496.266 260.681 497.106 259.43C497.946 258.18 499.063 257.138 500.369 256.387C501.676 255.635 503.137 255.194 504.642 255.096C508.544 254.837 512.074 257.75 511.005 262.183C514.519 265.727 509.872 269.368 509.872 269.368Z" fill="#350909"/>
<path d="M509.871 269.368C509.609 270.251 509.262 271.108 508.835 271.924C508.657 272.381 508.387 272.797 508.043 273.146C507.698 273.495 507.285 273.769 506.83 273.953C506.375 274.136 505.887 274.225 505.396 274.213C504.906 274.2 504.423 274.088 503.977 273.882L503.718 273.753C502.823 273.316 502.024 272.706 501.365 271.959C500.706 271.212 500.202 270.343 499.881 269.4C499.723 268.989 499.593 268.567 499.492 268.138C502.731 267.912 506.876 267.005 507.945 265.258L508.123 265.452C508.946 266.636 509.539 267.965 509.871 269.368Z" fill="url(#paint4_linear_165_2710)"/>
<path d="M509.548 276.13C509.143 278.59 505.095 278.46 504.69 276.859C504.464 276.033 504.205 275.24 503.994 274.658C503.784 274.075 503.687 273.768 503.687 273.768L503.946 273.897C504.391 274.103 504.874 274.215 505.365 274.228C505.855 274.24 506.343 274.151 506.798 273.968C507.253 273.784 507.666 273.51 508.011 273.161C508.356 272.812 508.625 272.396 508.803 271.939C508.528 272.49 509.257 273.185 509.5 274.48C509.612 275.023 509.629 275.582 509.548 276.13Z" fill="url(#paint5_linear_165_2710)"/>
<path d="M488.513 373.315C488.125 376.357 472.321 388.299 472.596 386.179C472.872 384.059 480.903 365.807 480.903 365.807C481.178 366.148 481.506 366.443 481.875 366.681C482.668 366.907 483.688 364.884 483.947 364.156C486.068 366.81 488.87 370.548 488.513 373.315Z" fill="#12006D"/>
<path d="M499.363 428.121C495.655 420.16 499.363 403.267 499.363 403.267C500.561 404.885 505.063 403.008 505.208 402.345C505.208 402.264 505.208 401.697 505.305 400.727C505.305 400.727 505.905 408.817 506.617 415.662C507.329 422.506 503.103 436.066 499.363 428.121Z" fill="#12006D"/>
<g style="mix-blend-mode:overlay" opacity="0.25">
<path d="M498.197 326.114C495.946 327.166 481.324 326.778 481.324 326.778C481.324 326.778 483.996 363.639 484.012 363.897C484.024 363.983 484.024 364.07 484.012 364.156C483.72 364.959 483.281 365.7 482.717 366.341C480.029 353.736 474.621 329.561 478.944 325.403C484.417 320.111 499.281 318.687 499.492 319.852C499.285 321.98 498.851 324.079 498.197 326.114Z" fill="black"/>
</g>
<path d="M487.672 308.703C487.475 309.023 487.384 309.397 487.413 309.771C487.737 311.001 486.037 326.47 486.652 328.056C487.411 331.266 487.625 334.581 487.283 337.862C486.927 341.098 480.288 342.991 480.288 340.256C480.288 337.522 481.082 331.066 481.357 328.59C481.632 326.114 479.139 308.218 479.738 305.742C480.569 303.602 481.656 301.57 482.976 299.69L483.996 298.072C484.094 299.69 490.619 303.897 491.153 303.897C489.837 305.38 488.671 306.99 487.672 308.703Z" fill="url(#paint6_linear_165_2710)"/>
<g style="mix-blend-mode:overlay" opacity="0.25">
<path d="M520.834 321.244C517.637 321.01 514.624 319.664 512.317 317.441C509.014 314.546 505.277 312.187 501.241 310.451C502.229 310.678 503.233 310.953 504.172 311.26C509.321 312.975 519.134 315.144 521.255 313.93C521.822 316.358 521.676 318.897 520.834 321.244Z" fill="black"/>
</g>
<g style="mix-blend-mode:overlay" opacity="0.25">
<path d="M517.773 330.191C515.635 335.709 512.397 343.217 507.62 353.686C507.507 359.01 505.807 392.942 505.337 400.757C505.337 401.696 505.24 402.262 505.24 402.375C504.525 403.088 503.6 403.553 502.601 403.702C502.908 392.262 502.503 367.36 504.43 360.013C506.746 351.13 517.174 331.405 517.773 330.191Z" fill="black"/>
</g>
<g style="mix-blend-mode:overlay" opacity="0.25">
<path d="M506.309 311.923C505.532 311.712 504.819 311.486 504.172 311.259C500.026 309.884 494.861 309.35 492.934 308.816C492.448 308.686 492.173 308.557 492.157 308.411C492.157 307.683 493.954 306.033 494.829 304.301C495.703 302.57 498.601 293.492 497.743 293.962C496.885 294.431 491.768 303.962 491.169 303.962C490.293 303.597 489.466 303.124 488.708 302.554C488.838 302.343 488.983 302.117 489.145 301.89C492.384 297.214 497.533 291.373 498.423 286.34C499.136 282.619 500.188 284.722 500.043 289.576C499.848 293.8 499.622 306.923 506.309 311.923Z" fill="black"/>
</g>
<g style="mix-blend-mode:overlay" opacity="0.25">
<path d="M521.288 313.915C520.154 314.562 516.867 314.255 513.191 313.559C519.668 307.087 516.122 289.53 517.142 290.436C518.432 291.398 519.809 292.238 521.255 292.944C521.417 297.734 523.344 312.653 521.288 313.915Z" fill="black"/>
</g>
<g style="mix-blend-mode:overlay" opacity="0.25">
<path d="M491.169 303.962C489.851 305.424 488.679 307.012 487.672 308.703C487.672 308.299 487.672 307.943 487.672 307.619C487.478 305.71 484.433 301.6 483.073 299.69L484.093 298.072C484.11 299.707 490.635 303.962 491.169 303.962Z" fill="black"/>
</g>
<g style="mix-blend-mode:overlay" opacity="0.25">
<path d="M508.058 265.452C506.439 268.979 501.792 269.384 499.816 269.4C499.658 268.989 499.528 268.567 499.428 268.138C502.666 267.912 506.811 267.005 507.88 265.258L508.058 265.452Z" fill="black"/>
</g>
<g style="mix-blend-mode:overlay" opacity="0.25">
<path d="M509.531 274.464C509.201 274.713 508.819 274.885 508.414 274.965C506.937 275.36 505.37 275.252 503.961 274.658C503.783 274.108 503.653 273.768 503.653 273.768L503.912 273.897C504.358 274.103 504.841 274.215 505.331 274.228C505.822 274.24 506.31 274.151 506.765 273.968C507.22 273.784 507.633 273.51 507.977 273.161C508.322 272.812 508.592 272.396 508.77 271.939C508.56 272.473 509.288 273.169 509.531 274.464Z" fill="black"/>
</g>
<path d="M530.711 0V330.192" stroke="#092533" stroke-width="0.92" stroke-miterlimit="10"/>
<path d="M544.701 290.889V291.148C543.81 295.145 540.62 295.566 540.021 295.307C539.422 295.048 537.819 293.219 536.426 286.779C536.426 286.65 536.426 286.52 536.345 286.391C536.264 286.261 533.334 278.672 531.925 274.967C528.427 272.912 527.763 273.737 527.278 271.359C527.122 270.289 527.217 269.197 527.554 268.17C527.891 267.142 528.462 266.207 529.221 265.436C530.111 264.999 534.078 268.672 534.629 270.08C535.18 271.488 545.429 286.65 544.701 290.889Z" fill="url(#paint7_linear_165_2710)"/>
<g style="mix-blend-mode:overlay" opacity="0.25">
<path d="M544.588 291.148C543.697 295.145 540.507 295.566 539.908 295.307C539.309 295.048 537.706 293.219 536.313 286.779C537.152 288.734 538.432 290.467 540.054 291.844C540.397 292.096 540.787 292.279 541.201 292.38C541.614 292.482 542.044 292.501 542.465 292.437C542.887 292.372 543.291 292.225 543.655 292.004C544.019 291.783 544.336 291.492 544.588 291.148Z" fill="black"/>
</g>
<path d="M427.372 499.997L418.838 456.454C412.523 424.253 400.352 400.758 382.325 385.968C364.297 371.179 342.017 366.384 315.483 371.583C288.96 376.772 270.156 389.55 259.069 409.917C247.983 430.283 245.603 456.626 251.929 488.945L260.494 532.634C266.777 564.716 278.937 588.152 296.976 602.941C304.358 609.068 312.915 613.621 322.122 616.323C334.633 620.002 348.58 620.331 363.963 617.31C371.472 615.89 378.795 613.621 385.79 610.547C400.498 604.204 412.633 593.086 420.231 578.993C431.328 558.691 433.708 532.359 427.372 499.997ZM374.115 558.443C371.201 567.354 365.032 572.747 355.608 574.624C345.892 576.534 337.958 573.794 331.805 566.404C327.627 561.377 324.06 553.902 321.102 543.977C319.742 539.382 318.495 534.269 317.394 528.605L305.428 467.489C302.61 451.427 302.61 439.021 305.428 430.272C308.245 421.524 314.388 416.179 323.855 414.237C327.073 413.459 330.422 413.384 333.672 414.018C336.922 414.652 339.997 415.98 342.686 417.91C344.568 419.303 346.261 420.935 347.722 422.764C353.897 430.37 358.663 442.775 362.02 459.981L373.597 519.139C376.868 536.41 377.041 549.511 374.115 558.443Z" fill="#FF6643"/>
<g style="mix-blend-mode:overlay" opacity="0.25">
<path d="M378.391 566.615C380.852 570.385 384.123 596.081 385.791 610.563C378.795 613.638 371.472 615.907 363.963 617.327C348.581 620.326 334.634 619.997 322.123 616.34C322.651 615.17 323.111 613.971 323.499 612.748C331.32 588.897 321.556 545.887 321.103 543.945C324.06 553.859 327.628 561.335 331.806 566.372C337.915 573.773 345.85 576.513 355.608 574.592C365.032 572.748 371.201 567.354 374.116 558.411C377.031 549.469 376.858 536.394 373.598 519.188L362.02 460.03C358.652 442.846 353.886 430.44 347.723 422.813C346.262 420.984 344.569 419.352 342.687 417.959C361.518 421.648 376.804 479.9 383.167 507.991C389.531 536.081 390.082 549.107 378.391 566.615Z" fill="black"/>
</g>
<path d="M325.264 555.384C325.264 555.384 326.478 558.62 332.89 560.336C339.302 562.051 345.326 552.245 349.568 555.384C353.811 558.523 360.611 571.776 366.586 569.769C372.561 567.763 374.326 599.575 371.444 603.119C368.562 606.662 366.586 578.07 359.105 578.847C351.625 579.624 357.292 601.258 353.033 605.157C348.775 609.057 350.556 595.61 345.957 593.135C341.359 590.659 350.912 701.322 343.836 703.086C336.76 704.849 332.162 698.134 334.995 674.445C337.829 650.756 334.283 569.09 330.04 564.85C325.798 560.611 326.106 559.866 325.264 555.384Z" fill="#6C5BE8"/>
<path d="M323.498 0V386.034" stroke="#092533" stroke-width="0.92" stroke-miterlimit="10"/>
<path d="M415.342 236.763C415.342 236.763 409.707 221.31 410.176 220.112C410.646 218.915 416.831 216.666 417.285 217.329C417.738 217.992 421.657 229.999 420.993 230.856C420.329 231.714 415.342 236.763 415.342 236.763Z" fill="#12006D"/>
<path d="M321.556 216.504C323.784 217.558 325.551 219.387 326.527 221.65C328.049 225.355 327.45 211.941 327.45 211.941L325.83 210.42L321.556 216.504Z" fill="url(#paint8_linear_165_2710)"/>
<path d="M319.758 216.504C321.365 217.744 323.047 218.884 324.794 219.918C325.539 220.112 326.947 211.698 326.3 210.371C325.652 209.044 323.32 207.717 321.814 208.575C320.309 209.432 319.046 215.986 319.758 216.504Z" fill="url(#paint9_linear_165_2710)"/>
<path d="M331.238 217.459C331.238 217.459 327.805 209.514 326.3 208.122C324.794 206.731 322.009 208.511 321.814 209.239C321.62 209.967 325.15 210.501 326.3 211.698C327.449 212.896 324.34 221.714 327.32 224.821C330.299 227.928 331.238 217.459 331.238 217.459Z" fill="url(#paint10_linear_165_2710)"/>
<path d="M411.099 238.544C412.437 237.855 413.688 237.008 414.823 236.019C415.487 235.162 414.289 231.909 416.215 228.932C418.142 225.955 422.239 226.812 423.243 230.388C424.247 233.965 421.624 238.479 420.458 239.871C419.292 241.262 411.099 247.104 411.099 247.104" fill="url(#paint11_linear_165_2710)"/>
<path d="M413.285 245.468C412.947 246.465 412.395 247.377 411.666 248.138C407.796 252.652 397.093 261.503 377.905 271.616C377.524 273.17 377.221 274.741 376.998 276.325C376.38 281.197 376.223 286.116 376.529 291.018C376.529 292.199 376.675 293.348 376.756 294.448C377.096 299.302 377.581 303.251 377.452 305.548C377.496 306.265 377.29 306.974 376.869 307.555C376.441 307.928 375.987 308.269 375.509 308.574C365.907 314.739 348.419 305.532 345.602 302.765C345.43 302.629 345.296 302.45 345.213 302.247C344.711 300.387 346.622 298.412 347.69 295.225C347.957 294.102 348.136 292.961 348.225 291.811C348.727 286.956 349.164 278.137 349.326 271.536C349.471 268.731 349.427 265.92 349.196 263.121C348.662 260.953 332.567 236.649 327.725 228.041C327.124 227.14 326.665 226.152 326.365 225.112C326.543 223.17 330.268 216.277 331.061 216.374C331.585 216.85 332.043 217.394 332.421 217.992C336.162 223.17 346.185 238.817 348.047 240.824C349.909 242.83 358.555 251.94 362.328 255.905L364.045 257.701C366.1 257.659 368.15 257.481 370.181 257.167C388.284 254.367 406.063 241.714 410.662 238.186C411.423 237.62 411.828 237.28 411.828 237.28C411.828 237.28 413.69 242.976 413.285 245.468Z" fill="#FF7900"/>
<path d="M368.206 265.695C362.037 266.698 362.02 258.672 362.344 255.986L364.061 257.782C366.116 257.741 368.166 257.563 370.198 257.248C370.894 260.323 370.279 265.371 368.206 265.695Z" fill="#C64200"/>
<path d="M374.375 248.494C373.655 248.893 372.861 249.139 372.042 249.217C371.223 249.295 370.396 249.203 369.614 248.947C367.676 248.378 365.848 247.486 364.206 246.309C363.044 247.958 362.416 249.923 362.409 251.94C358.037 248.154 356.968 244.367 360.693 242.976C359.17 236.358 362.409 234.966 367.85 234.643C373.29 234.319 374.553 239.869 377.808 239.74C378.002 242.717 377.16 246.859 374.375 248.494Z" fill="#12006D"/>
<path d="M374.375 248.495C374.375 249.029 374.23 249.644 374.1 250.307C373.371 254.191 371.461 259.595 368.595 259.304L368.125 259.207C366.986 258.737 365.958 258.035 365.105 257.146C364.252 256.258 363.593 255.202 363.17 254.045C362.862 253.365 362.607 252.662 362.409 251.942C362.447 250.938 362.61 249.943 362.895 248.98C363.163 248.017 363.608 247.112 364.206 246.311C365.848 247.488 367.676 248.379 369.615 248.948C370.397 249.204 371.223 249.296 372.042 249.218C372.861 249.14 373.656 248.894 374.375 248.495Z" fill="url(#paint12_linear_165_2710)"/>
<path d="M368.594 261.585C368.594 262.993 368.368 264.093 367.429 264.158C365.534 264.288 363.008 261.812 363.138 259.126C363.138 258.203 363.138 257.233 363.138 256.343C363.138 255.453 363.138 254.627 363.138 254.045C363.56 255.201 364.219 256.258 365.072 257.146C365.925 258.035 366.954 258.736 368.092 259.207L368.562 259.304C368.594 260.08 368.611 260.873 368.594 261.585Z" fill="url(#paint13_linear_165_2710)"/>
<path d="M413.284 245.467C412.946 246.465 412.393 247.376 411.665 248.137C411.577 244.802 411.264 241.477 410.726 238.185C411.487 237.619 411.891 237.279 411.891 237.279C411.891 237.279 413.689 242.975 413.284 245.467Z" fill="#C64200"/>
<path d="M332.356 217.993C329.538 220.42 328.162 225.679 327.66 228.009C327.058 227.109 326.6 226.121 326.3 225.081C326.478 223.139 330.202 216.246 330.996 216.343C331.522 216.828 331.98 217.384 332.356 217.993Z" fill="#C64200"/>
<path d="M376.691 294.496C370.36 295.403 358.458 296.228 348.16 291.859C348.662 287.005 349.099 278.186 349.261 271.584C354.362 273.736 365.373 277.587 376.934 276.438C376.207 282.432 376.126 288.486 376.691 294.496Z" fill="#FFB000"/>
<g style="mix-blend-mode:overlay" opacity="0.25">
<path d="M375.443 308.574C365.096 315.224 345.6 304.027 345.147 302.247C344.694 300.467 346.556 298.412 347.624 295.224C347.891 294.102 348.07 292.96 348.159 291.81C348.661 286.956 349.098 278.137 349.26 271.535C349.405 268.731 349.361 265.92 349.13 263.121C351.448 270.515 353.292 278.049 354.652 285.678C356.514 296.81 356.109 302.118 361.55 305.694C364.74 307.781 370.553 308.881 375.443 308.574Z" fill="black"/>
</g>
<path d="M399.1 339.189C399.1 343.785 382.455 369.27 379.022 374.497L378.39 375.435C377.068 375.265 375.763 374.983 374.488 374.594C373.257 374.173 372.205 373.59 372.205 372.781C372.189 372.534 372.189 372.285 372.205 372.037C372.804 368.477 376.463 355.646 381.143 338.672C378.682 335.662 361.34 324.109 361.34 324.109C360.579 325.84 336.517 381.455 333.813 386.649L333.619 387.005C332.372 388.623 327.239 388.768 326.883 385.387C325.409 371.325 337.553 328.914 343.205 310.16C344.208 306.795 345.018 304.206 345.504 302.652C348.321 305.419 365.809 314.626 375.411 308.461C375.889 308.156 376.344 307.815 376.771 307.442C377.193 306.861 377.399 306.152 377.354 305.436L377.904 306.067C384.64 313.914 399.1 334.772 399.1 339.189Z" fill="#98C4F9"/>
<path d="M335.546 394.528C334.882 397.764 317.378 407.651 318.965 401.712C320.26 396.858 325.134 388.492 326.915 385.531C327.272 388.881 332.405 388.767 333.651 387.149L333.846 386.793C334.752 389.301 335.983 392.376 335.546 394.528Z" fill="#12006D"/>
<path d="M384.77 391.584C383.443 392.247 366.198 385.613 366.587 383.364C366.975 381.115 372.286 372.037 372.286 372.037C372.271 372.285 372.271 372.534 372.286 372.781C372.286 374.723 378.472 375.435 378.472 375.435L379.103 374.497C379.783 381.374 386.017 390.985 384.77 391.584Z" fill="#12006D"/>
<g style="mix-blend-mode:overlay" opacity="0.25">
<path d="M359.17 322.264C359.17 322.264 340.063 359.755 332.89 385.5" stroke="black" stroke-width="0.46" stroke-miterlimit="10"/>
</g>
<g style="mix-blend-mode:overlay" opacity="0.25">
<path d="M363.672 322.264C363.672 322.264 384.9 336.196 385.693 338.445C386.487 340.694 374.683 372.037 374.683 372.037" stroke="black" stroke-width="0.46" stroke-miterlimit="10"/>
</g>
<g style="mix-blend-mode:overlay" opacity="0.25">
<path d="M377.921 306.178C375.589 315.498 362.052 312.974 355.122 311.178C351.22 310.301 347.211 309.996 343.221 310.272C344.225 306.906 345.034 304.317 345.52 302.764C348.337 305.531 365.825 314.738 375.427 308.573C375.905 308.267 376.36 307.926 376.787 307.553C377.209 306.972 377.415 306.263 377.37 305.547L377.921 306.178Z" fill="black"/>
</g>
<g style="mix-blend-mode:overlay" opacity="0.25">
<path d="M374.488 374.595C373.257 374.174 372.205 373.591 372.205 372.782C372.189 372.535 372.189 372.286 372.205 372.038C372.804 368.478 376.463 355.647 381.143 338.673C378.682 335.663 361.34 324.11 361.34 324.11C361.34 324.11 362.749 319.255 364.352 318.98C365.955 318.705 384.333 334.449 386.357 337.718C388.235 340.663 375.719 364.077 374.488 374.595Z" fill="black"/>
</g>
<g style="mix-blend-mode:overlay" opacity="0.25">
<path d="M374.375 248.495C374.375 249.029 374.23 249.644 374.1 250.307C369.469 252.669 364.919 247.362 364.385 247.427C364.077 247.427 363.429 248.268 362.911 249.045C363.179 248.082 363.624 247.176 364.223 246.375C365.864 247.552 367.692 248.444 369.631 249.013C370.415 249.257 371.241 249.337 372.057 249.248C372.873 249.158 373.662 248.902 374.375 248.495Z" fill="black"/>
</g>
<g style="mix-blend-mode:overlay" opacity="0.25">
<path d="M368.594 261.585C365.534 260.841 363.85 257.767 363.202 256.343C363.202 255.436 363.202 254.627 363.202 254.045C363.625 255.201 364.284 256.258 365.137 257.146C365.99 258.035 367.018 258.736 368.157 259.207L368.627 259.304C368.594 260.08 368.61 260.873 368.594 261.585Z" fill="black"/>
</g>
<g style="mix-blend-mode:overlay" opacity="0.25">
<path d="M376.933 276.326C376.315 281.198 376.158 286.117 376.464 291.018C375.266 285.938 374.213 280.484 375.444 277.329C376.072 275.358 376.874 273.447 377.84 271.617C377.459 273.17 377.156 274.742 376.933 276.326Z" fill="black"/>
</g>
<path d="M227.981 327.053L170.66 317.15L170.579 317.668L44.0855 459.981L41.4785 495.58L59.6138 498.703L91.0106 504.091L133.11 511.324L137.126 512.02L134.114 529.56L132.706 537.651L128.107 564.463L165.349 570.935L185.476 574.431L194.495 521.955L219.658 526.259L227.333 482.036L202.17 477.716L227.981 327.053ZM156.492 399.982L144.801 467.942L130.827 465.548L100.273 460.305L117.226 440.127L121.096 435.515L153.367 397.037L157.933 391.875L156.492 399.982Z" fill="#6C5BE8"/>
<g style="mix-blend-mode:overlay" opacity="0.25">
<path d="M133.207 511.323L91.1074 504.09C96.0784 487.699 102.28 465.126 100.321 460.207L130.876 465.45C133.279 469.702 134.628 474.469 134.81 479.349C135.507 490.288 133.871 501.388 133.207 511.323Z" fill="black"/>
</g>
<path d="M102.102 460.547C102.102 460.547 106.7 454.172 117.047 456.162C127.394 458.153 128.187 470.887 123.67 484.949C119.152 499.01 118.1 548.055 120.221 563.961C122.342 579.867 121.014 587.294 115.978 587.828C110.943 588.362 108.546 568.734 111.477 554.948C114.408 541.162 114.116 528.427 109.34 530.547C104.563 532.667 108.546 537.974 106.101 542.748C103.656 547.521 96.5476 544.608 96.8067 535.579C97.0658 526.55 111.574 467.975 102.102 460.547Z" fill="#98C4F9"/>
<g style="mix-blend-mode:overlay" opacity="0.25">
<path d="M202.089 477.715L227.252 482.036L219.658 526.194L194.495 521.89L185.476 574.365L165.479 570.935L200.616 351.794L227.981 327.053L202.089 477.715Z" fill="black"/>
</g>
<path d="M184.974 0V341.568" stroke="#092533" stroke-width="0.92" stroke-miterlimit="10"/>
<path d="M291.632 263.121C291.632 265.166 291.025 267.165 289.888 268.865C288.751 270.566 287.136 271.891 285.245 272.674C283.354 273.456 281.274 273.661 279.267 273.262C277.26 272.863 275.416 271.878 273.969 270.432C272.522 268.986 271.537 267.144 271.137 265.138C270.738 263.132 270.943 261.053 271.726 259.164C272.509 257.275 273.835 255.66 275.537 254.524C277.238 253.388 279.239 252.781 281.285 252.781C284.029 252.781 286.661 253.871 288.602 255.81C290.542 257.749 291.632 260.379 291.632 263.121Z" fill="#FF7900"/>
<path d="M651.683 394.545C651.68 396.59 651.07 398.587 649.931 400.285C648.792 401.984 647.175 403.306 645.284 404.087C643.394 404.867 641.314 405.069 639.308 404.668C637.302 404.268 635.46 403.281 634.014 401.835C632.569 400.388 631.585 398.546 631.187 396.54C630.789 394.535 630.995 392.457 631.778 390.569C632.562 388.68 633.888 387.066 635.589 385.931C637.291 384.795 639.29 384.189 641.336 384.189C642.696 384.189 644.043 384.457 645.299 384.978C646.556 385.499 647.697 386.262 648.658 387.224C649.619 388.185 650.381 389.327 650.9 390.584C651.419 391.84 651.685 393.186 651.683 394.545Z" fill="#6C5BE8"/>
<path d="M110.619 319.027C110.619 321.072 110.013 323.071 108.876 324.772C107.739 326.472 106.123 327.797 104.232 328.58C102.342 329.363 100.261 329.567 98.2541 329.168C96.247 328.769 94.4033 327.785 92.9563 326.339C91.5093 324.893 90.5238 323.05 90.1246 321.044C89.7254 319.039 89.9303 316.96 90.7134 315.07C91.4965 313.181 92.8227 311.566 94.5242 310.43C96.2258 309.294 98.2262 308.687 100.273 308.688C103.015 308.692 105.645 309.783 107.584 311.721C109.524 313.659 110.615 316.286 110.619 319.027Z" fill="#98C4F9"/>
<path d="M281.286 635.289C281.286 637.334 280.679 639.333 279.542 641.033C278.405 642.734 276.789 644.059 274.898 644.842C273.008 645.624 270.927 645.829 268.92 645.43C266.913 645.031 265.069 644.046 263.622 642.6C262.175 641.154 261.19 639.312 260.791 637.306C260.391 635.3 260.596 633.221 261.379 631.332C262.163 629.443 263.489 627.828 265.19 626.692C266.892 625.556 268.892 624.949 270.939 624.949C273.683 624.949 276.315 626.039 278.255 627.978C280.195 629.917 281.286 632.547 281.286 635.289Z" fill="#FF6643"/>
<path d="M582.185 298.235C584.385 298.235 586.169 296.452 586.169 294.254C586.169 292.056 584.385 290.273 582.185 290.273C579.986 290.273 578.202 292.056 578.202 294.254C578.202 296.452 579.986 298.235 582.185 298.235Z" fill="#FF7900"/>
<path d="M277.302 360.338C279.502 360.338 281.285 358.556 281.285 356.358C281.285 354.159 279.502 352.377 277.302 352.377C275.102 352.377 273.318 354.159 273.318 356.358C273.318 358.556 275.102 360.338 277.302 360.338Z" fill="#98C4F9"/>
<path d="M161.884 302.344C161.887 303.136 161.655 303.911 161.216 304.57C160.778 305.23 160.154 305.745 159.422 306.049C158.691 306.354 157.885 306.434 157.108 306.281C156.331 306.127 155.616 305.746 155.056 305.186C154.496 304.626 154.115 303.913 153.961 303.136C153.807 302.359 153.888 301.554 154.192 300.823C154.497 300.092 155.012 299.468 155.672 299.03C156.333 298.592 157.108 298.36 157.9 298.363C158.957 298.363 159.97 298.783 160.717 299.529C161.464 300.276 161.884 301.288 161.884 302.344Z" fill="#6C5BE8"/>
<defs>
<linearGradient id="paint0_linear_165_2710" x1="519.425" y1="434.641" x2="532.151" y2="638.282" gradientUnits="userSpaceOnUse">
<stop stop-color="#FFB000"/>
<stop offset="1" stop-color="#FF7900"/>
</linearGradient>
<linearGradient id="paint1_linear_165_2710" x1="36.9281" y1="379.528" x2="38.3834" y2="365.741" gradientUnits="userSpaceOnUse">
<stop stop-color="#FFC5AE"/>
<stop offset="1" stop-color="#EA8B6A"/>
</linearGradient>
<linearGradient id="paint2_linear_165_2710" x1="55.322" y1="374.917" x2="42.5788" y2="375.857" gradientUnits="userSpaceOnUse">
<stop stop-color="#FFC5AE"/>
<stop offset="1" stop-color="#EA8B6A"/>
</linearGradient>
<linearGradient id="paint3_linear_165_2710" x1="38.6444" y1="426.875" x2="50.3041" y2="384.978" gradientUnits="userSpaceOnUse">
<stop stop-color="#FFC5AE"/>
<stop offset="1" stop-color="#EA8B6A"/>
</linearGradient>
<linearGradient id="paint4_linear_165_2710" x1="504.463" y1="273.267" x2="504.981" y2="261.132" gradientUnits="userSpaceOnUse">
<stop stop-color="#FFC5AE"/>
<stop offset="1" stop-color="#EA8B6A"/>
</linearGradient>
<linearGradient id="paint5_linear_165_2710" x1="506.812" y1="278.428" x2="506.424" y2="269.804" gradientUnits="userSpaceOnUse">
<stop stop-color="#FFC5AE"/>
<stop offset="1" stop-color="#EA8B6A"/>
</linearGradient>
<linearGradient id="paint6_linear_165_2710" x1="480.207" y1="343.477" x2="489.732" y2="281.42" gradientUnits="userSpaceOnUse">
<stop stop-color="#FFC5AE"/>
<stop offset="1" stop-color="#EA8B6A"/>
</linearGradient>
<linearGradient id="paint7_linear_165_2710" x1="533.641" y1="268.64" x2="541.064" y2="307.8" gradientUnits="userSpaceOnUse">
<stop stop-color="#FFC5AE"/>
<stop offset="1" stop-color="#EA8B6A"/>
</linearGradient>
<linearGradient id="paint8_linear_165_2710" x1="322.932" y1="210.873" x2="327.558" y2="220.746" gradientUnits="userSpaceOnUse">
<stop stop-color="#FFC5AE"/>
<stop offset="1" stop-color="#EA8B6A"/>
</linearGradient>
<linearGradient id="paint9_linear_165_2710" x1="315.888" y1="210.63" x2="327.415" y2="215.474" gradientUnits="userSpaceOnUse">
<stop stop-color="#FFC5AE"/>
<stop offset="1" stop-color="#EA8B6A"/>
</linearGradient>
<linearGradient id="paint10_linear_165_2710" x1="322.511" y1="206.925" x2="329.935" y2="222.705" gradientUnits="userSpaceOnUse">
<stop stop-color="#FFC5AE"/>
<stop offset="1" stop-color="#EA8B6A"/>
</linearGradient>
<linearGradient id="paint11_linear_165_2710" x1="428.295" y1="222.541" x2="407.213" y2="247.603" gradientUnits="userSpaceOnUse">
<stop stop-color="#FFC5AE"/>
<stop offset="1" stop-color="#EA8B6A"/>
</linearGradient>
<linearGradient id="paint12_linear_165_2710" x1="369.307" y1="260.728" x2="367.043" y2="234.482" gradientUnits="userSpaceOnUse">
<stop stop-color="#FFC5AE"/>
<stop offset="1" stop-color="#EA8B6A"/>
</linearGradient>
<linearGradient id="paint13_linear_165_2710" x1="365.437" y1="260.938" x2="366.504" y2="254.174" gradientUnits="userSpaceOnUse">
<stop stop-color="#FFC5AE"/>
<stop offset="1" stop-color="#EA8B6A"/>
</linearGradient>
</defs>
</svg>
