<svg width="18" height="20" viewBox="0 0 18 20" fill="none" xmlns="http://www.w3.org/2000/svg">
<path d="M17.25 1V16C17.25 16.1989 17.171 16.3897 17.0303 16.5303C16.8897 16.671 16.6989 16.75 16.5 16.75H3.75C3.35218 16.75 2.97064 16.908 2.68934 17.1893C2.40804 17.4706 2.25 17.8522 2.25 18.25H15C15.1989 18.25 15.3897 18.329 15.5303 18.4697C15.671 18.6103 15.75 18.8011 15.75 19C15.75 19.1989 15.671 19.3897 15.5303 19.5303C15.3897 19.671 15.1989 19.75 15 19.75H1.5C1.30109 19.75 1.11032 19.671 0.96967 19.5303C0.829018 19.3897 0.75 19.1989 0.75 19V3.25C0.752472 2.45511 1.06934 1.69349 1.63141 1.13141C2.19349 0.569337 2.95511 0.252472 3.75 0.25H16.5C16.6989 0.25 16.8897 0.329018 17.0303 0.46967C17.171 0.610322 17.25 0.801088 17.25 1Z" fill="white"/>
</svg>
