<svg width="49" height="48" viewBox="0 0 49 48" fill="none" xmlns="http://www.w3.org/2000/svg">
<path d="M42.5423 37.6684C43.4677 36.8119 44.0493 35.5828 44.0493 34.2184C44.0493 31.6373 41.969 29.5376 39.4123 29.5376C38.6596 29.5376 37.9492 29.7207 37.32 30.0432V23.9993C37.32 23.6594 37.0445 23.3838 36.7046 23.3838H30.7836V17.8321L36.6775 10.2487C37.4389 9.26894 37.2715 7.8399 36.3045 7.06281C35.3292 6.27866 33.8915 6.42933 33.0996 7.39931L29.3147 12.0369H19.6847L15.8995 7.39863C15.108 6.42902 13.6706 6.27799 12.6946 7.06213C11.7276 7.83925 11.5602 9.2686 12.3216 10.2483L18.2155 17.8318V23.3838H12.2941C11.9543 23.3838 11.6787 23.6593 11.6787 23.9992V30.0434C11.0496 29.721 10.3388 29.5379 9.58644 29.5379C7.02974 29.5379 4.94945 31.6375 4.94945 34.2186C4.94945 35.5831 5.53104 36.8125 6.45648 37.669C4.86776 37.6483 3.37109 38.571 3.37109 40.3355V47.3838C3.37109 47.7237 3.64665 47.9992 3.9865 47.9992C4.32635 47.9992 4.60191 47.7237 4.60191 47.3838V40.3352C4.60191 39.5433 5.2461 38.8991 6.03797 38.8991L13.1352 38.8988C14.0105 38.9808 14.4889 39.4596 14.5713 40.3348V47.3838C14.5713 47.7237 14.8469 47.9992 15.1867 47.9992C15.5266 47.9992 15.8021 47.7237 15.8021 47.3838V40.3352C15.8021 38.6483 14.2365 37.5709 12.7167 37.6687C13.6422 36.8122 14.2238 35.5831 14.2238 34.2187C14.2238 32.9524 13.7222 31.8023 12.9099 30.9588V24.6146H36.0898V30.9588C35.2775 31.8023 34.7759 32.952 34.7759 34.2187C34.7759 35.5831 35.3575 36.8126 36.283 37.669C34.6939 37.6483 33.1976 38.571 33.1976 40.3355V47.3838C33.1976 47.7237 33.4731 47.9992 33.813 47.9992C34.1528 47.9992 34.4284 47.7237 34.4284 47.3838V40.3352C34.4284 39.5433 35.0726 38.8991 35.8645 38.8991H42.9614C43.8366 38.9811 44.3151 39.4599 44.3975 40.3352V47.3838C44.3975 47.7237 44.673 47.9992 45.0129 47.9992C45.3527 47.9992 45.6283 47.7237 45.6283 47.3838V40.3352C45.3718 37.3837 42.5429 37.6683 42.5429 37.6683L42.5423 37.6684ZM9.58667 37.6684C7.70831 37.6684 6.18053 36.1208 6.18053 34.2184C6.18053 32.3163 7.70865 30.7684 9.58667 30.7684C11.465 30.7684 12.9928 32.316 12.9928 34.2184C12.9928 36.1208 11.465 37.6684 9.58667 37.6684ZM19.4464 23.384V17.6211C19.4464 17.4842 19.4009 17.3516 19.3169 17.2434L13.2934 9.49327C12.9419 9.04092 13.0192 8.38069 13.4659 8.02171C13.9165 7.65943 14.5805 7.72908 14.9462 8.17707L18.9158 13.0414C19.0326 13.1847 19.2077 13.2677 19.3926 13.2677H29.6072C29.792 13.2677 29.9671 13.1847 30.084 13.0414L34.0533 8.17742C34.419 7.72942 35.0829 7.65978 35.5336 8.02206C35.9803 8.38099 36.0573 9.04129 35.7057 9.49361L29.6823 17.2438C29.5983 17.3519 29.5527 17.4845 29.5527 17.6214L29.5531 23.384H19.4464ZM36.0065 34.2192C36.0065 32.3168 37.5343 30.7692 39.4127 30.7692C41.291 30.7692 42.8188 32.3168 42.8188 34.2192C42.8188 36.1217 41.2907 37.6693 39.4127 37.6693C37.5343 37.6693 36.0065 36.1213 36.0065 34.2192Z" fill="white"/>
<path d="M27.6295 37.669C28.5549 36.8126 29.1365 35.5834 29.1365 34.219C29.1365 31.6382 27.0562 29.5386 24.4995 29.5386C21.9428 29.5386 19.8625 31.6382 19.8625 34.2194C19.8625 35.5838 20.4441 36.8133 21.3696 37.6697C19.7808 37.649 18.2842 38.5717 18.2842 40.3362V47.3846C18.2842 47.7244 18.5597 48 18.8996 48C19.2394 48 19.515 47.7244 19.515 47.3846V40.3359C19.515 39.544 20.1592 38.8998 20.9511 38.8998L28.0487 38.8995C28.9239 38.9815 29.4024 39.4603 29.4847 40.3356L29.4844 47.3846C29.4844 47.7244 29.76 48 30.0998 48C30.4396 48 30.7152 47.7244 30.7152 47.3846V40.3359C30.4484 37.3844 27.6295 37.669 27.6295 37.669ZM21.0934 34.2194C21.0934 32.3169 22.6215 30.769 24.4995 30.769C26.3775 30.769 27.9057 32.3166 27.9057 34.219C27.9057 36.1215 26.3779 37.669 24.4995 37.669C22.6212 37.6694 21.0934 36.1215 21.0934 34.2194Z" fill="white"/>
<path d="M24.4993 10.0514C27.2707 10.0514 29.5251 7.79704 29.5251 5.02571C29.5251 2.25438 27.2707 0 24.4993 0C21.728 0 19.4736 2.25438 19.4736 5.02571C19.4736 7.79704 21.728 10.0514 24.4993 10.0514ZM24.4993 1.23052C26.592 1.23052 28.2942 2.93273 28.2942 5.02537C28.2942 7.11801 26.592 8.82022 24.4993 8.82022C22.4067 8.82022 20.7045 7.11801 20.7045 5.02537C20.7045 2.93273 22.4067 1.23052 24.4993 1.23052Z" fill="white"/>
<path d="M6.55375 24.2973C6.89025 24.6901 7.63359 24.518 7.63659 23.9002L7.64998 21.075H10.9614C11.9793 21.075 12.8076 20.2466 12.8076 19.2288V15.0767C12.8076 14.0588 11.9793 13.2305 10.9614 13.2305H2.34621C1.32835 13.2305 0.5 14.0588 0.5 15.0767V19.3313C0.5 20.3254 1.29353 21.0751 2.34621 21.0751H3.79496L6.55375 24.2973ZM1.73059 19.3312V15.0766C1.73059 14.7371 2.00648 14.4612 2.34599 14.4612H10.9612C11.3007 14.4612 11.5766 14.7371 11.5766 15.0766V19.2287C11.5766 19.5682 11.3007 19.8441 10.9612 19.8441H7.03776C6.69926 19.8441 6.42403 20.118 6.42235 20.4565L6.41398 22.2414L4.54532 20.059C4.42846 19.9224 4.2577 19.8437 4.0779 19.8437L2.34587 19.8441C2.03951 19.8441 1.73046 19.6854 1.73046 19.3311L1.73059 19.3312Z" fill="white"/>
<path d="M7.08449 17.1935C7.08449 16.8537 6.80894 16.5781 6.46909 16.5781H3.99236C3.65252 16.5781 3.37695 16.8537 3.37695 17.1935C3.37695 17.5334 3.65251 17.8089 3.99236 17.8089H6.46909C6.80893 17.8089 7.08449 17.5334 7.08449 17.1935Z" fill="white"/>
<path d="M46.6538 13.2305H38.0386C37.0207 13.2305 36.1924 14.0588 36.1924 15.0767V19.2288C36.1924 20.2467 37.0207 21.075 38.0386 21.075H41.3497L41.3634 23.9003C41.3664 24.5183 42.11 24.6901 42.4462 24.2974L45.2055 21.075H46.6539C47.6717 21.075 48.5001 20.2466 48.5001 19.2288V15.0767C48.5001 14.0585 47.6717 13.2305 46.6539 13.2305L46.6538 13.2305ZM47.2692 19.2288C47.2692 19.5683 46.9933 19.8442 46.6538 19.8442H44.9217C44.7419 19.8442 44.5712 19.9229 44.4543 20.0595L42.5857 22.2419L42.577 20.457C42.5753 20.1185 42.3004 19.8446 41.9616 19.8446L38.0384 19.8442C37.6989 19.8442 37.423 19.5683 37.423 19.2288V15.0767C37.423 14.7372 37.6989 14.4613 38.0384 14.4613H46.6536C46.9931 14.4613 47.269 14.7372 47.269 15.0767L47.2692 19.2288Z" fill="white"/>
<path d="M45.0078 16.5781H39.6594C39.3195 16.5781 39.0439 16.8537 39.0439 17.1935C39.0439 17.5334 39.3195 17.8089 39.6594 17.8089H45.0078C45.3476 17.8089 45.6232 17.5334 45.6232 17.1935C45.6232 16.854 45.3476 16.5781 45.0078 16.5781Z" fill="white"/>
<path d="M10.0581 17.1934C10.0581 17.5902 9.7367 17.9116 9.33993 17.9116C8.9435 17.9116 8.62207 17.5902 8.62207 17.1934C8.62207 16.797 8.9435 16.4756 9.33993 16.4756C9.7367 16.4756 10.0581 16.797 10.0581 17.1934Z" fill="white"/>
</svg>
