<svg width="43" height="48" viewBox="0 0 43 48" fill="none" xmlns="http://www.w3.org/2000/svg">
<path d="M34.8714 0.000439364H0.600163C0.268689 0.000439364 0 0.269128 0 0.600601V47.3998C0 47.7313 0.268272 48 0.600163 48H34.8714C36.7622 48 38.3003 46.462 38.3003 44.5715V32.9992H40.886C41.8795 32.9992 42.6877 32.191 42.6877 31.1979V26.7005C42.6877 26.2372 42.5069 25.8186 42.2189 25.4993C42.5073 25.18 42.6877 24.761 42.6877 24.2977V19.8002C42.6877 19.3369 42.5069 18.9184 42.2189 18.5991C42.5073 18.2798 42.6877 17.8608 42.6877 17.3975V12.9C42.6877 12.4367 42.5069 12.0182 42.2189 11.6989C42.5073 11.3795 42.6877 10.9606 42.6877 10.4973V5.99983C42.6877 5.00668 41.8795 4.19857 40.886 4.19857H38.3003V3.42766C38.3003 1.53801 36.7623 0 34.8714 0V0.000439364ZM41.4878 12.9013V17.3988C41.4878 17.7302 41.2178 18.0002 40.8859 18.0002H38.3003V12.3004H40.8859C41.2178 12.3004 41.4878 12.5702 41.4878 12.9013ZM41.4878 19.8014V24.2989C41.4878 24.6303 41.2178 24.9003 40.8859 24.9003H38.3003V19.2005H40.8859C41.2178 19.2001 41.4878 19.4699 41.4878 19.8014ZM1.20058 1.20063H5.1003V46.7999H1.20058V1.20063ZM37.1004 44.5714C37.1004 45.8002 36.1009 46.8 34.8713 46.8H6.30103V1.20074H34.8724C36.1016 1.20074 37.1014 2.20016 37.1014 3.42938L37.1004 44.5714ZM41.4877 31.198C41.4877 31.5295 41.2177 31.7994 40.8858 31.7994H38.3002V26.0996H40.8858C41.2173 26.0996 41.4877 26.3696 41.4877 26.7006V31.198ZM40.8858 5.39949C41.2173 5.39949 41.4877 5.66944 41.4877 6.00049V10.498C41.4877 10.8294 41.2177 11.0994 40.8858 11.0994H38.3002V5.39957L40.8858 5.39949Z" fill="white"/>
<path d="M21.3821 21.9937C15.5358 21.9937 10.7793 26.7502 10.7793 32.5965C10.7793 33.8194 10.9978 34.9896 11.3803 36.0832C11.387 36.1999 11.4301 36.3033 11.4937 36.3929C13.0251 40.3676 16.8747 43.1997 21.3821 43.1997H21.3825H21.3829C27.2288 43.1992 31.9849 38.4428 31.9849 32.5969C31.9849 26.7506 27.2284 21.9937 21.3821 21.9937ZM29.7843 28.4008H26.4688C25.6841 26.143 24.4081 24.4617 23.4434 23.4289C26.2244 24.0541 28.5372 25.9136 29.7844 28.4008H29.7843ZM11.9785 32.5969C11.9785 31.5485 12.1585 30.5432 12.4766 29.6007H15.9516C15.7256 30.5231 15.582 31.518 15.582 32.5969C15.582 33.6185 15.7218 34.5656 15.9403 35.4517H12.4248C12.1368 34.5506 11.9785 33.5923 11.9785 32.5969ZM16.7823 32.5969C16.7823 31.5143 16.9405 30.5152 17.1937 29.6007H20.7821V35.4516H17.1782C16.9329 34.5731 16.7823 33.6205 16.7823 32.5968L16.7823 32.5969ZM25.1778 28.4008H21.9815V23.6682C22.778 24.4203 24.2566 26.0437 25.1778 28.4008ZM20.7817 23.7213V28.4004H17.5984C18.5091 26.1094 19.9621 24.4994 20.7817 23.7213ZM20.7817 36.6511V41.2916C19.8538 40.4014 18.4619 38.8098 17.5883 36.6511H20.7817ZM21.9815 41.2846V36.6511H25.1719C24.2968 38.8086 22.9081 40.3936 21.9815 41.2846ZM21.9815 35.4513V29.6004H25.5787C25.8269 30.514 25.9805 31.5134 25.9805 32.5966C25.9805 33.6211 25.8248 34.5716 25.5787 35.4514L21.9815 35.4513ZM26.8154 29.6004H30.2866C30.6047 30.5429 30.7846 31.5482 30.7846 32.5966C30.7846 33.5918 30.6264 34.5502 30.3385 35.4514H26.8221C27.0406 34.5658 27.1804 33.6183 27.1804 32.5966C27.1804 31.5177 27.0385 30.5229 26.8154 29.6004ZM19.3825 23.4126C18.4036 24.4442 17.1016 26.1321 16.3035 28.4005H12.9792C14.236 25.8944 16.5734 24.0236 19.3825 23.4126ZM12.911 36.6509H16.2993C17.1364 38.9876 18.5392 40.744 19.6064 41.8259C16.6454 41.2572 14.1816 39.2947 12.911 36.6509ZM23.1572 41.8259C24.224 40.7445 25.6269 38.9876 26.4639 36.6509H29.8527C28.5817 39.2947 26.1178 41.2571 23.1572 41.8259Z" fill="white"/>
<path d="M13.2268 14.1657H17.0147V19.3106C17.0147 19.6421 17.283 19.9108 17.6149 19.9108H24.965C25.2965 19.9108 25.5651 19.6421 25.5651 19.3106L25.5647 14.1657H29.3833C29.6194 14.1657 29.8341 14.0267 29.9308 13.8112C30.0275 13.5952 29.9889 13.3429 29.8316 13.1667L21.7534 4.10114C21.5249 3.84584 21.0854 3.84584 20.8569 4.10114L12.7787 13.1667C12.6217 13.3429 12.5828 13.5952 12.6795 13.8112C12.7766 14.0271 12.9908 14.1657 13.2269 14.1657H13.2268ZM21.305 5.40228L28.0448 12.9658H24.9645C24.633 12.9658 24.3643 13.2345 24.3643 13.566V18.7109H18.2146L18.2151 13.566C18.2151 13.2345 17.9468 12.9658 17.6149 12.9658H14.5651L21.305 5.40228Z" fill="white"/>
</svg>
