<svg width="35" height="48" viewBox="0 0 35 48" fill="none" xmlns="http://www.w3.org/2000/svg">
<path d="M32.9503 25.4712V27.5007H29.9459V44.4707H32.9503V46.5004H2.00003V44.471H5.00377V27.5001H2.00003V25.4707H32.9503M34.4503 23.9707H0.5V29.0002H3.50374V42.9701L0.5 42.9705V47.9999H34.4503V42.9705H31.4459L31.4456 28.9996H34.45L34.4503 23.9707Z" fill="white"/>
<path d="M11.5412 1.50003C13.3279 1.50003 14.7813 2.95282 14.7813 4.73846C14.7813 6.52409 13.3279 7.97689 11.5412 7.97689C9.75556 7.97689 8.30276 6.52409 8.30276 4.73846C8.30276 2.95282 9.75556 1.50003 11.5412 1.50003ZM11.5412 0C8.92514 0 6.80273 2.12181 6.80273 4.73846C6.80273 7.35613 8.92523 9.47691 11.5412 9.47691C14.1589 9.47691 16.2814 7.35579 16.2814 4.73846C16.2814 2.12181 14.1589 0 11.5412 0Z" fill="white"/>
<path d="M11.5409 12.395C16.0483 12.395 19.794 16.0671 20.4502 20.8441H2.63328C3.29021 16.0674 7.03496 12.395 11.5409 12.395ZM11.5409 10.895C5.7373 10.895 1.03125 16.0206 1.03125 22.3441H22.0531C22.0537 16.0208 17.3467 10.895 11.5417 10.895H11.5409Z" fill="white"/>
<path d="M31.2947 23.9714H29.7946V17.8879L22.8242 11.416L23.8448 10.3164L31.2947 17.2339V23.9714Z" fill="white"/>
<path d="M21.5756 6.66064L27.1361 9.62487L26.4306 10.9484L20.8701 7.98418L21.5756 6.66064Z" fill="white"/>
</svg>
