<svg width="48" height="48" viewBox="0 0 48 48" fill="none" xmlns="http://www.w3.org/2000/svg">
<path d="M34.3994 22.3999H35.9994V23.9999H34.3994V22.3999Z" fill="white"/>
<path d="M31.1992 22.3999H32.7992V23.9999H31.1992V22.3999Z" fill="white"/>
<path d="M28 22.3999H29.6V23.9999H28V22.3999Z" fill="white"/>
<path d="M47.9995 8.7999V7.19992H31.9997V5.59994C31.9997 2.51279 29.4869 0 26.3997 0H21.5998C18.5126 0 15.9998 2.51279 15.9998 5.59994V7.19992H9.59991C9.15742 7.19992 8.79992 7.55742 8.79992 7.99991V23.1997C8.79992 23.7062 8.90384 24.1869 9.0767 24.6333L0.599993 26.8255C0.247138 26.9165 0 27.2351 0 27.5998C0 27.9644 0.247138 28.283 0.599993 28.374L11.2001 31.115V35.1997H2.4002V36.7996H11.2001V38.3996H4.80017V39.9996H11.2001V41.5996H7.20015V43.1996H11.8712L23.7467 47.1581C23.8285 47.1852 23.9149 47.1995 23.9996 47.1995C24.0842 47.1995 24.1706 47.1852 24.2524 47.1581L36.2523 43.1581C36.5794 43.0492 36.7994 42.7442 36.7994 42.3996V31.1147L44.7993 29.0458V40.6095L43.2833 43.6405C43.1704 43.8652 43.1704 44.1309 43.2833 44.3566L44.8833 47.5566C45.0193 47.828 45.2961 47.999 45.5993 47.999C45.9025 47.999 46.1793 47.828 46.3154 47.5566L47.9154 44.3566C48.0282 44.132 48.0282 43.8662 47.9154 43.6405L46.3993 40.6102V28.6322L47.3993 28.3737C47.7522 28.2826 47.9993 27.964 47.9993 27.5994C47.9993 27.2348 47.7522 26.9162 47.3993 26.8251L38.9226 24.6323C39.0955 24.1866 39.1994 23.7059 39.1994 23.1995V15.1996H43.1994V13.5996H39.1994V11.9996H45.5993V10.3996H39.1994V8.79963L47.9995 8.7999ZM45.5995 45.4102L44.8938 43.9991L45.5995 42.588L46.3052 43.9991L45.5995 45.4102ZM17.5998 5.59994C17.5998 3.39425 19.3941 1.59998 21.5998 1.59998H26.3997C28.6054 1.59998 30.3997 3.39425 30.3997 5.59994V7.19992H28.7997V5.59994C28.7997 4.27671 27.723 3.19996 26.3997 3.19996H21.5998C20.2765 3.19996 19.1998 4.27671 19.1998 5.59994V7.19992H17.5998V5.59994ZM27.1997 7.19992H20.7998V5.59994C20.7998 5.15852 21.1584 4.79995 21.5998 4.79995H26.3997C26.8411 4.79995 27.1997 5.15852 27.1997 5.59994V7.19992ZM10.3999 8.7999H37.5996V11.9999C37.5996 13.3231 36.5229 14.3998 35.1996 14.3998H27.1997V11.9999C27.1997 11.5574 26.8422 11.1999 26.3997 11.1999H21.5998C21.1573 11.1999 20.7998 11.5574 20.7998 11.9999V14.3998H12.7999C11.4766 14.3998 10.3999 13.3231 10.3999 11.9999V8.7999ZM37.5996 23.1997C37.5996 23.7437 37.4107 24.2397 37.1053 24.6429C37.1007 24.6486 37.0932 24.6526 37.0885 24.659C36.9757 24.8054 36.8485 24.9351 36.711 25.0493C36.7046 25.0551 36.6982 25.0604 36.691 25.0654C36.5664 25.1668 36.4318 25.2511 36.291 25.3254C36.2671 25.3376 36.2446 25.3526 36.2207 25.364C36.0918 25.4265 35.9568 25.4718 35.8182 25.5097C35.7846 25.5186 35.7536 25.5329 35.7196 25.5401C35.5507 25.5772 35.3771 25.5997 35.1996 25.5997H12.7999C12.6224 25.5997 12.4488 25.5772 12.2792 25.539C12.2449 25.5318 12.2135 25.5176 12.1806 25.5086C12.0431 25.4711 11.907 25.4254 11.7792 25.3629C11.7545 25.3518 11.732 25.3365 11.7081 25.3243C11.5681 25.2508 11.4328 25.1658 11.3088 25.0651C11.3024 25.0594 11.296 25.054 11.2888 25.049C11.1513 24.9347 11.0242 24.8051 10.9113 24.6586C10.9067 24.6522 10.9003 24.649 10.8946 24.6426C10.5888 24.2397 10.3999 23.7437 10.3999 23.1998V15.1791C11.0703 15.6869 11.8959 15.9998 12.7999 15.9998H13.5999V18.3998C13.5999 18.8423 13.9574 19.1998 14.3999 19.1998H17.5998C18.0423 19.1998 18.3998 18.8423 18.3998 18.3998V15.9998H29.5997V18.3998C29.5997 18.8423 29.9572 19.1998 30.3997 19.1998H33.5997C34.0421 19.1998 34.3996 18.8423 34.3996 18.3998V15.9998H35.1996C36.1036 15.9998 36.9293 15.6869 37.5996 15.1791L37.5996 23.1997ZM15.1998 15.9998H16.7998V17.5998H15.1998V15.9998ZM25.5997 14.3998H22.3998V12.7999H25.5997V14.3998ZM31.1997 15.9998H32.7996V17.5998H31.1997V15.9998ZM35.1996 41.8226L23.9997 45.5561L12.7999 41.8226V31.5288L23.7995 34.3734C23.8652 34.3902 23.9324 34.3991 23.9995 34.3991C24.0667 34.3991 24.1338 34.3902 24.1995 34.3734L35.1992 31.5288L35.1996 41.8226ZM23.9997 32.7731L3.99449 27.5996L9.99762 26.0468C10.3633 26.4068 10.7962 26.6957 11.2769 26.8946C11.3658 26.9314 11.4608 26.95 11.5512 26.9803C11.7033 27.0307 11.8519 27.0875 12.0111 27.1196C12.2679 27.1718 12.5322 27.1996 12.8001 27.1996H35.1998C35.4677 27.1996 35.732 27.1718 35.9887 27.1196C36.148 27.0875 36.2966 27.03 36.4487 26.9803C36.5398 26.95 36.6352 26.9314 36.723 26.8946C37.2037 26.6953 37.6373 26.4068 38.0023 26.0468L44.0054 27.5996L23.9997 32.7731Z" fill="white"/>
</svg>
