<svg width="49" height="42" viewBox="0 0 49 42" fill="none" xmlns="http://www.w3.org/2000/svg">
<path d="M28.3066 18.8868C28.3066 18.8868 30.7967 20.1123 30.8115 20.1183C30.8262 20.1247 32.2867 20.7669 32.3761 21.9853L32.3758 28.1276C32.3758 28.5421 32.7116 28.8776 33.1258 28.8776C33.54 28.8776 33.8758 28.5421 33.8758 28.1276C33.8758 28.1276 33.8754 21.93 33.8744 21.915C33.7492 19.839 31.6864 18.864 31.4149 18.7449L29.4424 17.7739V17.7743C29.122 18.2002 28.7392 18.5755 28.3066 18.8868Z" fill="white"/>
<path d="M23.6023 19.6079L22.6417 24.0905C22.5902 24.3306 22.6595 24.5807 22.8272 24.7602L24.7022 26.7651C24.8442 26.9168 25.0424 27.0028 25.25 27.0028C25.4576 27.0028 25.6561 26.9168 25.7978 26.7651L27.6728 24.7602C27.8405 24.5807 27.9098 24.3306 27.8586 24.0905L26.8976 19.6079C26.4199 19.7656 25.922 19.8533 25.4191 19.8684L26.3094 24.0215L25.25 25.1546L24.1907 24.0215L25.081 19.8681V19.8684C24.5781 19.8533 24.0802 19.7656 23.6024 19.6079L23.6023 19.6079Z" fill="white"/>
<path d="M25.25 18.3767C26.2445 18.3757 27.1974 17.9803 27.9005 17.2772C28.6036 16.5741 28.999 15.6208 29 14.6264V11.626C29 10.286 28.2852 9.04824 27.125 8.37821C25.9649 7.70857 24.5352 7.70857 23.375 8.37821C22.2149 9.04819 21.5 10.286 21.5 11.626V14.6264C21.501 15.6208 21.8964 16.5741 22.5995 17.2772C23.3023 17.9803 24.2556 18.3757 25.25 18.3767ZM23 11.626C23 10.8221 23.4289 10.0791 24.125 9.67738C24.8211 9.27564 25.6789 9.2756 26.375 9.67738C27.0711 10.0792 27.5 10.8221 27.5 11.626V14.6264C27.5 15.4303 27.0711 16.1729 26.375 16.575C25.6789 16.9768 24.8211 16.9768 24.125 16.575C23.4289 16.1729 23 15.4303 23 14.6264V11.626Z" fill="white"/>
<path d="M18.1251 21.9859C18.2141 20.7637 19.6773 20.1242 19.689 20.1192C19.7041 20.1129 22.1884 18.8834 22.1884 18.8834V18.8831C21.7568 18.5714 21.3748 18.1964 21.055 17.7705L19.0846 18.7462C18.8094 18.8674 16.7509 19.8424 16.6263 21.9163C16.6253 21.931 16.625 25.1644 16.625 25.1644C17.1282 25.1969 17.6281 25.2518 18.125 25.3261L18.1251 21.9859Z" fill="white"/>
<path d="M8 30.7538C8 31.1679 7.66417 31.5038 7.25 31.5038C6.83583 31.5038 6.5 31.1679 6.5 30.7538C6.5 30.3392 6.83583 30.0034 7.25 30.0034C7.66417 30.0034 8 30.3392 8 30.7538Z" fill="white"/>
<path d="M11.4032 10.3659C11.4135 10.3706 12.4351 10.84 12.5001 11.7166V16.8769C12.5001 17.2911 12.8359 17.6269 13.2501 17.6269C13.6642 17.6269 14.0001 17.2911 14.0001 16.8769C14.0001 16.8769 13.9997 11.6634 13.9987 11.649C13.8993 9.93368 12.2781 9.11844 12.0333 9.00487L10.5845 8.26157L10.5849 8.26123C10.2105 8.67607 9.76255 9.01793 9.26367 9.2694C9.26367 9.2694 11.3918 10.3609 11.4032 10.3659Z" fill="white"/>
<path d="M3.91252 8.25832L2.4654 9.0053C2.21797 9.12014 0.600425 9.93573 0.501339 11.6491C0.500335 11.6635 0.5 16.877 0.5 16.877C0.5 17.2912 0.83583 17.627 1.25 17.627C1.66417 17.627 2 17.2912 2 16.877V11.7167C2.06496 10.8401 3.08618 10.3707 3.09218 10.3681C3.10725 10.3614 5.23033 9.26648 5.23033 9.26648H5.22999C4.73245 9.01469 4.28581 8.67285 3.91252 8.25832Z" fill="white"/>
<path d="M5.55885 9.41797L4.64444 13.3561C4.58552 13.6102 4.66253 13.8764 4.84835 14.0596L6.72336 15.9102V15.9105C7.01532 16.1988 7.48474 16.1988 7.7767 15.9105L9.65171 14.0599V14.0596C9.83754 13.8764 9.91454 13.6102 9.85561 13.3561L8.94121 9.41797C8.47447 9.60714 7.97889 9.71563 7.47601 9.7394L8.29967 13.2869L7.25001 14.3228L6.20035 13.2869L7.02402 9.7394C6.52111 9.71563 6.02565 9.60681 5.55885 9.41797Z" fill="white"/>
<path d="M7.25001 8.25066C8.04554 8.24965 8.80796 7.93325 9.37041 7.37071C9.93287 6.80818 10.249 6.04582 10.25 5.25031V2.99996C10.25 1.92818 9.67814 0.937753 8.75001 0.402037C7.8219 -0.134013 6.67812 -0.134013 5.75 0.402037C4.82189 0.937753 4.25 1.92818 4.25 2.99996V5.25031C4.251 6.04584 4.56708 6.80825 5.1296 7.37071C5.69213 7.93317 6.45449 8.24963 7.25001 8.25066ZM5.75 2.99996C5.75 2.46424 6.03594 1.96907 6.50001 1.70087C6.96407 1.43301 7.53595 1.43301 8.00001 1.70087C8.46408 1.96906 8.75001 2.46426 8.75001 2.99996V5.25031C8.75001 5.78636 8.46408 6.28154 8.00001 6.5494C7.53594 6.81725 6.96406 6.81725 6.50001 6.5494C6.03595 6.28154 5.75 5.78634 5.75 5.25031V2.99996Z" fill="white"/>
<path d="M48.4987 11.6495C48.3993 9.93416 46.7781 9.11893 46.5333 9.00536L45.0845 8.26205L45.0849 8.26172C44.7105 8.67656 44.2625 9.01842 43.7637 9.26989C43.7637 9.26989 45.8918 10.3614 45.9032 10.3664C45.9136 10.3711 46.9351 10.8405 47.0001 11.7171V16.8774C47.0001 17.2916 47.3359 17.6274 47.7501 17.6274C48.1643 17.6274 48.5001 17.2916 48.5001 16.8774C48.5001 16.8774 48.4997 11.6639 48.4987 11.6495Z" fill="white"/>
<path d="M35.75 17.627C36.1642 17.627 36.5 17.2912 36.5 16.877V11.7167C36.565 10.8401 37.5862 10.3707 37.5922 10.3681C37.6073 10.3614 39.7304 9.26647 39.7304 9.26647H39.73C39.2325 9.01469 38.7858 8.67283 38.4125 8.2583L36.9654 9.00529C36.718 9.12013 35.1004 9.93572 35.0013 11.6491C35.0003 11.6635 35 16.877 35 16.877C35 17.2911 35.3359 17.627 35.75 17.627Z" fill="white"/>
<path d="M43.4412 9.41797C42.9745 9.60714 42.4789 9.71563 41.976 9.7394L42.7997 13.2869L41.75 14.3228L40.7004 13.2869L41.524 9.7394C41.0211 9.71563 40.5256 9.60714 40.0588 9.41797L39.1444 13.3561C39.0855 13.6102 39.1625 13.8764 39.3483 14.0596L41.2234 15.9102V15.9105C41.5153 16.1988 41.9847 16.1988 42.2767 15.9105L44.1517 14.0599V14.0596C44.3375 13.8764 44.4145 13.6102 44.3556 13.3561L43.4412 9.41797Z" fill="white"/>
<path d="M41.75 8.25066C42.5455 8.24965 43.308 7.93325 43.8704 7.37071C44.4329 6.80818 44.749 6.04582 44.75 5.25031V2.99996C44.75 1.92818 44.1781 0.937753 43.25 0.402037C42.3219 -0.134013 41.1781 -0.134013 40.25 0.402037C39.3219 0.937753 38.75 1.92818 38.75 2.99996V5.25031C38.751 6.04584 39.0671 6.80825 39.6296 7.37071C40.1921 7.93317 40.9545 8.24963 41.75 8.25066ZM40.25 2.99996C40.25 2.46424 40.5359 1.96907 41 1.70087C41.4641 1.43301 42.036 1.43301 42.5 1.70087C42.9641 1.96906 43.25 2.46426 43.25 2.99996V5.25031C43.25 5.78636 42.9641 6.28154 42.5 6.5494C42.0359 6.81725 41.4641 6.81725 41 6.5494C40.5359 6.28154 40.25 5.78634 40.25 5.25031V2.99996Z" fill="white"/>
<path d="M42.8362 28.3104C42.0588 27.8741 41.1309 27.7937 40.2899 28.0904C39.1308 27.1495 37.5966 26.8084 36.1478 27.1696C35.9125 26.9731 35.6526 26.8077 35.3751 26.6774V28.5036C35.3754 28.8873 35.277 29.2646 35.0891 29.5995L36.4867 28.6961C36.5286 28.669 37.4219 28.0499 38.8549 28.9101L34.8451 31.4316C35.0212 31.9894 35.0477 32.584 34.9214 33.1556L40.6348 29.5633C41.0909 29.3587 41.6146 29.3701 42.0609 29.5948C42.3736 29.802 42.5433 30.1673 42.4998 30.5399C42.4456 30.9377 42.0679 31.1918 41.7455 31.377C41.723 31.3897 29.1994 39.3465 29.1351 39.3876C28.0932 40.0496 26.6705 39.6314 25.582 39.2855L16.3626 36.627C15.8212 36.4488 15.2386 36.4422 14.6934 36.6076L11.3757 37.6V28.9411L12.8928 28.5011C16.3494 27.4987 20.0322 28.708 23.5934 29.8776C24.7689 30.264 27.1495 30.9617 27.1495 30.9617V30.9621C27.9845 31.1974 28.832 31.3869 29.6877 31.5296C30.1786 31.6029 32.2119 31.5959 31.988 32.542C31.851 33.1159 30.8245 33.8506 29.9911 33.9711C28.0381 34.2533 25.5698 34.325 22.0611 32.7155V32.7152C21.6844 32.5424 21.2391 32.7078 21.0667 33.0845C20.8939 33.4608 21.059 33.9062 21.4356 34.079C23.4606 35.0707 25.6805 35.6011 27.9352 35.6325C28.6952 35.6289 29.454 35.5696 30.2053 35.4558C31.5208 35.2656 33.1373 34.1892 33.4466 32.8896C33.5615 32.4075 33.5916 31.4847 32.5015 30.7203C31.7371 30.1839 30.7962 30.1782 29.9086 30.0456C29.1134 29.9271 27.3683 29.468 27.3683 29.468C26.3042 29.1888 25.2147 28.8309 24.0612 28.4522C20.4599 27.2692 16.3787 25.9289 12.4752 27.0603L11.2066 27.4283H11.2062C11.0288 27.0697 10.7532 26.769 10.4114 26.5611C10.0698 26.3532 9.67608 26.2464 9.27598 26.2534H5.22597C4.69092 26.233 4.16996 26.4255 3.77653 26.7881C3.38312 27.1511 3.14908 27.655 3.12598 28.1897V38.5689C3.14908 39.1036 3.38312 39.6072 3.77653 39.9702C4.16995 40.3328 4.69094 40.5253 5.22597 40.5052H9.27598C9.69953 40.5136 10.1157 40.3934 10.4696 40.1607C10.8239 39.9277 11.0988 39.5932 11.2588 39.2008L15.1293 38.0433C15.3878 37.9669 15.6634 37.9726 15.9185 38.0597L25.1474 40.7212C26.6434 41.197 28.4009 41.6232 29.8245 40.7205C29.8245 40.7205 42.3997 32.738 42.5068 32.6704C43.228 32.2127 43.8833 31.5394 43.9861 30.6541C44.0353 30.1948 43.9536 29.731 43.7504 29.3166C43.5471 28.9017 43.2307 28.5532 42.8377 28.3105L42.8362 28.3104ZM9.87471 38.5687C9.87471 38.8051 9.60016 39.0046 9.27471 39.0046H5.2247C4.89958 39.0046 4.62469 38.8051 4.62469 38.5687V28.1895C4.62469 27.9531 4.89925 27.7536 5.2247 27.7536L9.27471 27.7532C9.59982 27.7532 9.87471 27.9528 9.87471 28.1892V38.5687Z" fill="white"/>
</svg>
